<mxfile host="app.diagrams.net" modified="2023-03-17T16:48:31.356Z" agent="5.0 (Macintosh; Intel Mac OS X 10_15_7) AppleWebKit/537.36 (KHTML, like Gecko) Chrome/111.0.0.0 Safari/537.36" etag="oAWN_e_DB8KIlPFBn3rJ" version="21.0.6" type="github">
  <diagram name="Page-1" id="Gwfqj0nlbMDRUAetJDcP">
    <mxGraphModel dx="2411" dy="1074" grid="1" gridSize="10" guides="1" tooltips="1" connect="1" arrows="1" fold="1" page="1" pageScale="1" pageWidth="850" pageHeight="1100" math="0" shadow="0">
      <root>
        <mxCell id="0" />
        <mxCell id="1" parent="0" />
        <mxCell id="RCZ4i9NB5G9TMZS6hXk_-29" style="edgeStyle=orthogonalEdgeStyle;rounded=0;orthogonalLoop=1;jettySize=auto;html=1;entryX=0;entryY=0.5;entryDx=0;entryDy=0;elbow=vertical;curved=1;strokeColor=#003300;" edge="1" parent="1" source="RCZ4i9NB5G9TMZS6hXk_-1" target="RCZ4i9NB5G9TMZS6hXk_-14">
          <mxGeometry relative="1" as="geometry" />
        </mxCell>
        <mxCell id="RCZ4i9NB5G9TMZS6hXk_-56" style="rounded=0;orthogonalLoop=1;jettySize=auto;html=1;dashed=1;strokeColor=#006600;" edge="1" parent="1" source="RCZ4i9NB5G9TMZS6hXk_-1" target="RCZ4i9NB5G9TMZS6hXk_-55">
          <mxGeometry relative="1" as="geometry" />
        </mxCell>
        <mxCell id="RCZ4i9NB5G9TMZS6hXk_-1" value="Plan: CY22Q4" style="rounded=1;whiteSpace=wrap;html=1;fillColor=#d5e8d4;strokeColor=#82b366;fontStyle=1" vertex="1" parent="1">
          <mxGeometry x="60" y="250" width="120" height="60" as="geometry" />
        </mxCell>
        <mxCell id="RCZ4i9NB5G9TMZS6hXk_-63" style="edgeStyle=orthogonalEdgeStyle;rounded=0;orthogonalLoop=1;jettySize=auto;html=1;entryX=0.5;entryY=0;entryDx=0;entryDy=0;" edge="1" parent="1" source="RCZ4i9NB5G9TMZS6hXk_-12" target="RCZ4i9NB5G9TMZS6hXk_-13">
          <mxGeometry relative="1" as="geometry" />
        </mxCell>
        <mxCell id="RCZ4i9NB5G9TMZS6hXk_-12" value="EPIC for EKS" style="rounded=1;whiteSpace=wrap;html=1;fillColor=#f5f5f5;fontColor=#B3B3B3;strokeColor=#666666;fontStyle=2" vertex="1" parent="1">
          <mxGeometry x="230" y="420" width="120" height="60" as="geometry" />
        </mxCell>
        <mxCell id="RCZ4i9NB5G9TMZS6hXk_-64" style="edgeStyle=orthogonalEdgeStyle;rounded=0;orthogonalLoop=1;jettySize=auto;html=1;entryX=0.5;entryY=0;entryDx=0;entryDy=0;" edge="1" parent="1" source="RCZ4i9NB5G9TMZS6hXk_-13" target="RCZ4i9NB5G9TMZS6hXk_-15">
          <mxGeometry relative="1" as="geometry" />
        </mxCell>
        <mxCell id="RCZ4i9NB5G9TMZS6hXk_-13" value="EPIC for Kafka" style="rounded=1;whiteSpace=wrap;html=1;fillColor=#f5f5f5;fontColor=#B3B3B3;strokeColor=#666666;fontStyle=2" vertex="1" parent="1">
          <mxGeometry x="230" y="520" width="120" height="60" as="geometry" />
        </mxCell>
        <mxCell id="RCZ4i9NB5G9TMZS6hXk_-30" style="edgeStyle=orthogonalEdgeStyle;rounded=0;orthogonalLoop=1;jettySize=auto;html=1;entryX=0;entryY=0.5;entryDx=0;entryDy=0;curved=1;strokeColor=#003300;" edge="1" parent="1" source="RCZ4i9NB5G9TMZS6hXk_-14" target="RCZ4i9NB5G9TMZS6hXk_-17">
          <mxGeometry relative="1" as="geometry" />
        </mxCell>
        <mxCell id="RCZ4i9NB5G9TMZS6hXk_-31" style="edgeStyle=orthogonalEdgeStyle;rounded=0;orthogonalLoop=1;jettySize=auto;html=1;entryX=0;entryY=0.5;entryDx=0;entryDy=0;curved=1;fillColor=#f5f5f5;strokeColor=#E6E6E6;" edge="1" parent="1" source="RCZ4i9NB5G9TMZS6hXk_-14" target="RCZ4i9NB5G9TMZS6hXk_-18">
          <mxGeometry relative="1" as="geometry" />
        </mxCell>
        <mxCell id="RCZ4i9NB5G9TMZS6hXk_-32" style="edgeStyle=orthogonalEdgeStyle;rounded=0;orthogonalLoop=1;jettySize=auto;html=1;entryX=0;entryY=0.5;entryDx=0;entryDy=0;curved=1;fillColor=#f5f5f5;strokeColor=#E6E6E6;" edge="1" parent="1" source="RCZ4i9NB5G9TMZS6hXk_-14" target="RCZ4i9NB5G9TMZS6hXk_-19">
          <mxGeometry relative="1" as="geometry" />
        </mxCell>
        <mxCell id="RCZ4i9NB5G9TMZS6hXk_-57" style="rounded=0;orthogonalLoop=1;jettySize=auto;html=1;dashed=1;strokeColor=#006600;" edge="1" parent="1" source="RCZ4i9NB5G9TMZS6hXk_-14" target="RCZ4i9NB5G9TMZS6hXk_-45">
          <mxGeometry relative="1" as="geometry" />
        </mxCell>
        <mxCell id="RCZ4i9NB5G9TMZS6hXk_-62" style="edgeStyle=orthogonalEdgeStyle;rounded=0;orthogonalLoop=1;jettySize=auto;html=1;entryX=0.5;entryY=0;entryDx=0;entryDy=0;" edge="1" parent="1" source="RCZ4i9NB5G9TMZS6hXk_-14" target="RCZ4i9NB5G9TMZS6hXk_-12">
          <mxGeometry relative="1" as="geometry" />
        </mxCell>
        <mxCell id="RCZ4i9NB5G9TMZS6hXk_-14" value="EPIC for ECS" style="rounded=1;whiteSpace=wrap;html=1;fillColor=#d5e8d4;strokeColor=#82b366;fontStyle=1" vertex="1" parent="1">
          <mxGeometry x="230" y="320" width="120" height="60" as="geometry" />
        </mxCell>
        <mxCell id="RCZ4i9NB5G9TMZS6hXk_-65" style="edgeStyle=orthogonalEdgeStyle;rounded=0;orthogonalLoop=1;jettySize=auto;html=1;entryX=0.5;entryY=0;entryDx=0;entryDy=0;" edge="1" parent="1" source="RCZ4i9NB5G9TMZS6hXk_-15" target="RCZ4i9NB5G9TMZS6hXk_-16">
          <mxGeometry relative="1" as="geometry" />
        </mxCell>
        <mxCell id="RCZ4i9NB5G9TMZS6hXk_-15" value="EPIC for CICD" style="rounded=1;whiteSpace=wrap;html=1;fillColor=#f5f5f5;fontColor=#B3B3B3;strokeColor=#666666;fontStyle=2" vertex="1" parent="1">
          <mxGeometry x="230" y="620" width="120" height="60" as="geometry" />
        </mxCell>
        <mxCell id="RCZ4i9NB5G9TMZS6hXk_-16" value="EPIC for ..." style="rounded=1;whiteSpace=wrap;html=1;fillColor=#f5f5f5;fontColor=#B3B3B3;strokeColor=#666666;fontStyle=2" vertex="1" parent="1">
          <mxGeometry x="230" y="770" width="120" height="60" as="geometry" />
        </mxCell>
        <mxCell id="RCZ4i9NB5G9TMZS6hXk_-33" style="edgeStyle=orthogonalEdgeStyle;rounded=0;orthogonalLoop=1;jettySize=auto;html=1;entryX=0;entryY=0.5;entryDx=0;entryDy=0;curved=1;strokeColor=#003300;" edge="1" parent="1" source="RCZ4i9NB5G9TMZS6hXk_-17" target="RCZ4i9NB5G9TMZS6hXk_-20">
          <mxGeometry relative="1" as="geometry" />
        </mxCell>
        <mxCell id="RCZ4i9NB5G9TMZS6hXk_-34" style="edgeStyle=orthogonalEdgeStyle;rounded=0;orthogonalLoop=1;jettySize=auto;html=1;entryX=0;entryY=0.5;entryDx=0;entryDy=0;curved=1;fillColor=#f5f5f5;strokeColor=#E6E6E6;" edge="1" parent="1" source="RCZ4i9NB5G9TMZS6hXk_-17" target="RCZ4i9NB5G9TMZS6hXk_-21">
          <mxGeometry relative="1" as="geometry" />
        </mxCell>
        <mxCell id="RCZ4i9NB5G9TMZS6hXk_-39" style="edgeStyle=orthogonalEdgeStyle;rounded=0;orthogonalLoop=1;jettySize=auto;html=1;entryX=0.5;entryY=0;entryDx=0;entryDy=0;" edge="1" parent="1" source="RCZ4i9NB5G9TMZS6hXk_-17" target="RCZ4i9NB5G9TMZS6hXk_-18">
          <mxGeometry relative="1" as="geometry" />
        </mxCell>
        <mxCell id="RCZ4i9NB5G9TMZS6hXk_-58" style="rounded=0;orthogonalLoop=1;jettySize=auto;html=1;dashed=1;strokeColor=#006600;" edge="1" parent="1" source="RCZ4i9NB5G9TMZS6hXk_-17" target="RCZ4i9NB5G9TMZS6hXk_-45">
          <mxGeometry relative="1" as="geometry" />
        </mxCell>
        <mxCell id="RCZ4i9NB5G9TMZS6hXk_-17" value="Milestone 1: EPIC for ECS" style="rounded=1;whiteSpace=wrap;html=1;fillColor=#d5e8d4;strokeColor=#82b366;fontStyle=1" vertex="1" parent="1">
          <mxGeometry x="470" y="420" width="170" height="60" as="geometry" />
        </mxCell>
        <mxCell id="RCZ4i9NB5G9TMZS6hXk_-40" style="edgeStyle=orthogonalEdgeStyle;rounded=0;orthogonalLoop=1;jettySize=auto;html=1;entryX=0.5;entryY=0;entryDx=0;entryDy=0;" edge="1" parent="1" source="RCZ4i9NB5G9TMZS6hXk_-18" target="RCZ4i9NB5G9TMZS6hXk_-19">
          <mxGeometry relative="1" as="geometry" />
        </mxCell>
        <mxCell id="RCZ4i9NB5G9TMZS6hXk_-18" value="Milestone 2: EPIC for ECS" style="rounded=1;whiteSpace=wrap;html=1;fillColor=#f5f5f5;fontColor=#B3B3B3;strokeColor=#666666;fontStyle=2" vertex="1" parent="1">
          <mxGeometry x="470" y="520" width="170" height="60" as="geometry" />
        </mxCell>
        <mxCell id="RCZ4i9NB5G9TMZS6hXk_-19" value="Milestone ?: EPIC for ECS" style="rounded=1;whiteSpace=wrap;html=1;fillColor=#f5f5f5;fontColor=#B3B3B3;strokeColor=#666666;fontStyle=2" vertex="1" parent="1">
          <mxGeometry x="470" y="620" width="170" height="60" as="geometry" />
        </mxCell>
        <mxCell id="RCZ4i9NB5G9TMZS6hXk_-35" style="edgeStyle=orthogonalEdgeStyle;rounded=0;orthogonalLoop=1;jettySize=auto;html=1;entryX=0;entryY=0.5;entryDx=0;entryDy=0;curved=1;strokeColor=#003300;" edge="1" parent="1" source="RCZ4i9NB5G9TMZS6hXk_-20" target="RCZ4i9NB5G9TMZS6hXk_-23">
          <mxGeometry relative="1" as="geometry" />
        </mxCell>
        <mxCell id="RCZ4i9NB5G9TMZS6hXk_-36" style="edgeStyle=orthogonalEdgeStyle;rounded=0;orthogonalLoop=1;jettySize=auto;html=1;entryX=0;entryY=0.5;entryDx=0;entryDy=0;curved=1;strokeColor=#003300;" edge="1" parent="1" source="RCZ4i9NB5G9TMZS6hXk_-20" target="RCZ4i9NB5G9TMZS6hXk_-24">
          <mxGeometry relative="1" as="geometry" />
        </mxCell>
        <mxCell id="RCZ4i9NB5G9TMZS6hXk_-37" style="edgeStyle=orthogonalEdgeStyle;rounded=0;orthogonalLoop=1;jettySize=auto;html=1;entryX=0;entryY=0.5;entryDx=0;entryDy=0;curved=1;strokeColor=#003300;" edge="1" parent="1" source="RCZ4i9NB5G9TMZS6hXk_-20" target="RCZ4i9NB5G9TMZS6hXk_-27">
          <mxGeometry relative="1" as="geometry" />
        </mxCell>
        <mxCell id="RCZ4i9NB5G9TMZS6hXk_-38" style="edgeStyle=orthogonalEdgeStyle;rounded=0;orthogonalLoop=1;jettySize=auto;html=1;entryX=0;entryY=0.5;entryDx=0;entryDy=0;curved=1;strokeColor=#003300;" edge="1" parent="1" source="RCZ4i9NB5G9TMZS6hXk_-20" target="RCZ4i9NB5G9TMZS6hXk_-28">
          <mxGeometry relative="1" as="geometry" />
        </mxCell>
        <mxCell id="RCZ4i9NB5G9TMZS6hXk_-41" style="edgeStyle=orthogonalEdgeStyle;rounded=0;orthogonalLoop=1;jettySize=auto;html=1;entryX=0.5;entryY=0;entryDx=0;entryDy=0;" edge="1" parent="1" source="RCZ4i9NB5G9TMZS6hXk_-20" target="RCZ4i9NB5G9TMZS6hXk_-21">
          <mxGeometry relative="1" as="geometry" />
        </mxCell>
        <mxCell id="RCZ4i9NB5G9TMZS6hXk_-59" style="rounded=0;orthogonalLoop=1;jettySize=auto;html=1;dashed=1;strokeColor=#006600;" edge="1" parent="1" source="RCZ4i9NB5G9TMZS6hXk_-20" target="RCZ4i9NB5G9TMZS6hXk_-45">
          <mxGeometry relative="1" as="geometry" />
        </mxCell>
        <mxCell id="RCZ4i9NB5G9TMZS6hXk_-20" value="Sprint 1: Task from EPIC" style="rounded=1;whiteSpace=wrap;html=1;fillColor=#d5e8d4;strokeColor=#82b366;fontStyle=1" vertex="1" parent="1">
          <mxGeometry x="750" y="520" width="170" height="60" as="geometry" />
        </mxCell>
        <mxCell id="RCZ4i9NB5G9TMZS6hXk_-42" style="edgeStyle=orthogonalEdgeStyle;rounded=0;orthogonalLoop=1;jettySize=auto;html=1;entryX=0.5;entryY=0;entryDx=0;entryDy=0;" edge="1" parent="1" source="RCZ4i9NB5G9TMZS6hXk_-21" target="RCZ4i9NB5G9TMZS6hXk_-22">
          <mxGeometry relative="1" as="geometry" />
        </mxCell>
        <mxCell id="RCZ4i9NB5G9TMZS6hXk_-21" value="Sprint ?:Task from EPIC" style="rounded=1;whiteSpace=wrap;html=1;fillColor=#f5f5f5;fontColor=#B3B3B3;strokeColor=#666666;fontStyle=2" vertex="1" parent="1">
          <mxGeometry x="750" y="620" width="170" height="60" as="geometry" />
        </mxCell>
        <mxCell id="RCZ4i9NB5G9TMZS6hXk_-43" style="edgeStyle=orthogonalEdgeStyle;rounded=0;orthogonalLoop=1;jettySize=auto;html=1;entryX=0.5;entryY=0;entryDx=0;entryDy=0;curved=1;strokeColor=#003300;" edge="1" parent="1" source="RCZ4i9NB5G9TMZS6hXk_-22" target="RCZ4i9NB5G9TMZS6hXk_-25">
          <mxGeometry relative="1" as="geometry" />
        </mxCell>
        <mxCell id="RCZ4i9NB5G9TMZS6hXk_-22" value="Done" style="ellipse;whiteSpace=wrap;html=1;aspect=fixed;fillColor=#d5e8d4;strokeColor=#82b366;fontStyle=1" vertex="1" parent="1">
          <mxGeometry x="795" y="760" width="80" height="80" as="geometry" />
        </mxCell>
        <mxCell id="RCZ4i9NB5G9TMZS6hXk_-61" style="edgeStyle=orthogonalEdgeStyle;rounded=0;orthogonalLoop=1;jettySize=auto;html=1;dashed=1;strokeColor=#006600;" edge="1" parent="1" source="RCZ4i9NB5G9TMZS6hXk_-23" target="RCZ4i9NB5G9TMZS6hXk_-49">
          <mxGeometry relative="1" as="geometry" />
        </mxCell>
        <mxCell id="RCZ4i9NB5G9TMZS6hXk_-23" value="Demo vs Credit" style="rounded=1;whiteSpace=wrap;html=1;fillColor=#d5e8d4;strokeColor=#82b366;fontStyle=1" vertex="1" parent="1">
          <mxGeometry x="1050" y="650" width="120" height="60" as="geometry" />
        </mxCell>
        <mxCell id="RCZ4i9NB5G9TMZS6hXk_-24" value="CICD (repo, pipeline, deployment)" style="rounded=1;whiteSpace=wrap;html=1;fillColor=#d5e8d4;strokeColor=#82b366;fontStyle=1" vertex="1" parent="1">
          <mxGeometry x="1050" y="770" width="120" height="60" as="geometry" />
        </mxCell>
        <mxCell id="RCZ4i9NB5G9TMZS6hXk_-44" style="edgeStyle=orthogonalEdgeStyle;rounded=0;orthogonalLoop=1;jettySize=auto;html=1;entryX=0;entryY=0.5;entryDx=0;entryDy=0;curved=1;strokeColor=#003300;" edge="1" parent="1" source="RCZ4i9NB5G9TMZS6hXk_-25" target="RCZ4i9NB5G9TMZS6hXk_-26">
          <mxGeometry relative="1" as="geometry" />
        </mxCell>
        <mxCell id="RCZ4i9NB5G9TMZS6hXk_-25" value="Plan: CY23Q1" style="rounded=1;whiteSpace=wrap;html=1;fillColor=#d5e8d4;strokeColor=#82b366;fontStyle=1" vertex="1" parent="1">
          <mxGeometry x="60" y="970" width="120" height="60" as="geometry" />
        </mxCell>
        <mxCell id="RCZ4i9NB5G9TMZS6hXk_-26" value="EPIC by Tools, Services" style="rounded=1;whiteSpace=wrap;html=1;fillColor=#d5e8d4;strokeColor=#82b366;fontStyle=1" vertex="1" parent="1">
          <mxGeometry x="230" y="1060" width="120" height="60" as="geometry" />
        </mxCell>
        <mxCell id="RCZ4i9NB5G9TMZS6hXk_-27" value="Observability" style="rounded=1;whiteSpace=wrap;html=1;fillColor=#d5e8d4;strokeColor=#82b366;fontStyle=1" vertex="1" parent="1">
          <mxGeometry x="1050" y="890" width="120" height="60" as="geometry" />
        </mxCell>
        <mxCell id="RCZ4i9NB5G9TMZS6hXk_-60" style="rounded=0;orthogonalLoop=1;jettySize=auto;html=1;dashed=1;strokeColor=#006600;" edge="1" parent="1" source="RCZ4i9NB5G9TMZS6hXk_-28" target="RCZ4i9NB5G9TMZS6hXk_-50">
          <mxGeometry relative="1" as="geometry" />
        </mxCell>
        <mxCell id="RCZ4i9NB5G9TMZS6hXk_-28" value="Knowledge Sharing" style="rounded=1;whiteSpace=wrap;html=1;fillColor=#d5e8d4;strokeColor=#82b366;fontStyle=1" vertex="1" parent="1">
          <mxGeometry x="1050" y="1010" width="120" height="60" as="geometry" />
        </mxCell>
        <mxCell id="RCZ4i9NB5G9TMZS6hXk_-48" value="" style="group" vertex="1" connectable="0" parent="1">
          <mxGeometry x="890" y="160" width="75" height="60" as="geometry" />
        </mxCell>
        <mxCell id="RCZ4i9NB5G9TMZS6hXk_-45" value="Dev" style="shape=umlActor;verticalLabelPosition=bottom;verticalAlign=top;html=1;outlineConnect=0;fillColor=#d5e8d4;strokeColor=#82b366;" vertex="1" parent="RCZ4i9NB5G9TMZS6hXk_-48">
          <mxGeometry width="30" height="60" as="geometry" />
        </mxCell>
        <mxCell id="RCZ4i9NB5G9TMZS6hXk_-47" value="Leader" style="shape=umlActor;verticalLabelPosition=bottom;verticalAlign=top;html=1;outlineConnect=0;fillColor=#f5f5f5;fontColor=#333333;strokeColor=#666666;" vertex="1" parent="RCZ4i9NB5G9TMZS6hXk_-48">
          <mxGeometry x="45" width="30" height="60" as="geometry" />
        </mxCell>
        <mxCell id="RCZ4i9NB5G9TMZS6hXk_-49" value="Dev" style="shape=umlActor;verticalLabelPosition=bottom;verticalAlign=top;html=1;outlineConnect=0;fillColor=#d5e8d4;strokeColor=#82b366;" vertex="1" parent="1">
          <mxGeometry x="1095" y="510" width="30" height="60" as="geometry" />
        </mxCell>
        <mxCell id="RCZ4i9NB5G9TMZS6hXk_-50" value="" style="shape=umlActor;verticalLabelPosition=bottom;verticalAlign=top;html=1;outlineConnect=0;fillColor=#d5e8d4;strokeColor=#82b366;" vertex="1" parent="1">
          <mxGeometry x="1275" y="1010" width="30" height="60" as="geometry" />
        </mxCell>
        <mxCell id="RCZ4i9NB5G9TMZS6hXk_-51" value="" style="shape=umlActor;verticalLabelPosition=bottom;verticalAlign=top;html=1;outlineConnect=0;fillColor=#d5e8d4;strokeColor=#82b366;" vertex="1" parent="1">
          <mxGeometry x="1300" y="990" width="30" height="60" as="geometry" />
        </mxCell>
        <mxCell id="RCZ4i9NB5G9TMZS6hXk_-52" value="Team" style="shape=umlActor;verticalLabelPosition=bottom;verticalAlign=top;html=1;outlineConnect=0;fillColor=#d5e8d4;strokeColor=#82b366;" vertex="1" parent="1">
          <mxGeometry x="1315" y="1010" width="30" height="60" as="geometry" />
        </mxCell>
        <mxCell id="RCZ4i9NB5G9TMZS6hXk_-55" value="Leader" style="shape=umlActor;verticalLabelPosition=bottom;verticalAlign=top;html=1;outlineConnect=0;fillColor=#f5f5f5;fontColor=#333333;strokeColor=#666666;" vertex="1" parent="1">
          <mxGeometry x="310" y="140" width="30" height="60" as="geometry" />
        </mxCell>
      </root>
    </mxGraphModel>
  </diagram>
</mxfile>
